# xmcd
#
# Track frame offsets:
#	150
#	15445
#	29840
#	44110
#	59559
#	74123
#	88734
#	103711
#	116600
#	131938
#	146426
#	162030
#	175408
#	192883
#
# Disc length: 2764 seconds
#
# Revision: 0
# Processed by: cddbd v1.5.2PL0 Copyright (c) Steve Scherf et al.
# Submitted via: EasyCDDAExtractor 16.0.6.1
#
DISCID=d70aca0e
DTITLE=Christa Fartek - Don't give up
DYEAR=2017
DGENRE=Country
TTITLE0=It's up to you
TTITLE1=Everytime when I feel lonesome
TTITLE2=It's too late to say goodbye
TTITLE3=We love Rock  and Country Music
TTITLE4=Kansas Joe
TTITLE5=Channel
TTITLE6=This one moment
TTITLE7=Guitars and horses
TTITLE8=Don't give up
TTITLE9=If I could turn back time
TTITLE10=I don't need a man
TTITLE11=Country Bebop
TTITLE12=Second chance
TTITLE13=I don't need a man
EXTD=
EXTT0=
EXTT1=
EXTT2=
EXTT3=
EXTT4=
EXTT5=
EXTT6=
EXTT7=
EXTT8=
EXTT9=
EXTT10=
EXTT11=
EXTT12=
EXTT13=
PLAYORDER=
